<svg width="33" height="37" viewBox="0 0 33 37" fill="none" xmlns="http://www.w3.org/2000/svg">
<path d="M25.2187 10.4385L24.5509 10.6229L25.0605 10.1491C25.1301 10.0843 26.8124 8.55862 30.7855 8.21061C30.9779 8.19376 31.1749 8.1823 31.3724 8.17166C32.7262 3.55333 32.8665 2.11895e-05 32.8665 2.11895e-05C32.8665 2.11895e-05 25.9398 1.53048 19.5661 6.42877C20.1057 10.8435 18.8061 12.9851 18.7412 13.0884L18.3692 13.6795L18.4325 12.9807C18.6697 10.3596 18.4555 8.60578 18.2035 7.53824C17.041 8.54026 15.9159 9.66203 14.8767 10.9176C14.8319 10.9717 14.7884 11.0265 14.7441 11.0811C15.4858 15.9049 14.0706 18.2368 14.0028 18.3446L13.6308 18.9357L13.6939 18.2372C13.9317 15.6088 13.7158 13.8528 13.4629 12.7863C9.27357 18.8339 7.96363 25.7416 7.56517 28.9525L0.966738 36.9243L5.16146 35.0859L9.13389 30.2867C12.2528 29.309 18.9625 26.7085 24.1622 21.2318C23.7154 21.2066 23.1604 21.2081 22.4904 21.2668C21.3939 21.3628 20.1795 21.5936 18.8812 21.9524L18.2134 22.137L18.7228 21.663C18.7924 21.5982 20.4747 20.0721 24.4478 19.7241C24.8021 19.6931 25.1678 19.6761 25.5386 19.6661C28.1135 16.497 29.7878 12.9493 30.8742 9.74792C30.377 9.69727 29.7014 9.67641 28.8281 9.7529C27.7316 9.84912 26.5172 10.0797 25.2187 10.4385ZM9.78855 28.8894L7.92317 29.154L19.8745 15.212L9.78855 28.8894Z" fill="#fff"/>
</svg>
